<svg width="86" height="78" viewBox="0 0 86 78" fill="none" xmlns="http://www.w3.org/2000/svg">
  <path fill-rule="evenodd" clip-rule="evenodd" d="M43.0224 0C47.6664 0 51.9576 2.47753 54.2796 6.49934L84.3033 58.502C86.6253 62.5238 86.6253 67.4789 84.3033 71.5007C81.9813 75.5225 77.6901 78 73.0462 78H12.9987C8.35469 78 4.06348 75.5225 1.74149 71.5007C-0.580497 67.4789 -0.580497 62.5238 1.74149 58.502L31.7652 6.49934C34.0872 2.47753 38.3784 0 43.0224 0ZM49.5218 12.9987C49.5218 16.5881 46.6119 19.498 43.0225 19.498C39.433 19.498 36.5231 16.5881 36.5231 12.9987C36.5231 9.40917 39.433 6.49932 43.0225 6.49932C46.6119 6.49932 49.5218 9.40917 49.5218 12.9987ZM19.498 65.0028C19.498 68.5931 16.5881 71.5036 12.9987 71.5036C9.40917 71.5036 6.49932 68.5931 6.49932 65.0028C6.49932 61.4125 9.40917 58.5021 12.9987 58.5021C16.5881 58.5021 19.498 61.4125 19.498 65.0028ZM79.547 65.0014C79.547 68.5909 76.6371 71.5007 73.0476 71.5007C69.4581 71.5007 66.5483 68.5909 66.5483 65.0014C66.5483 61.4119 69.4581 58.5021 73.0476 58.5021C76.6371 58.5021 79.547 61.4119 79.547 65.0014Z" fill="#0F0F0F"/>
</svg>
