<?xml version="1.0" encoding="utf-8" ?><svg xmlns="http://www.w3.org/2000/svg" xmlns:xlink="http://www.w3.org/1999/xlink" width="2363" height="2363" viewBox="0 0 2363 2363"><path fill="#141110" transform="matrix(2.30762 0 0 2.30762 0 -6.10352e-05)" d="M517.752 228.206C521.169 227.687 531.98 227.812 535.729 227.822C566.937 227.9 598.533 236.881 626.921 249.386C631.348 251.336 638.377 253.786 642.38 255.959C630.656 253.976 617.591 251.549 605.73 250.331C580.33 247.722 553.55 249.366 528.54 254.401C519.693 256.182 511.719 259.361 503.288 262.199C450.198 280.071 403.745 318.781 374.001 366.25C323.509 446.83 310.778 548.06 324.768 641.009C326.855 654.87 330.579 670.551 333.588 684.314C335.704 685.759 337.981 686.836 340.321 687.865C350.427 692.311 360.337 697.187 370.567 701.351C348.88 583.323 385.577 440.635 468.529 352.678C523.82 294.051 613.421 258.069 692.057 288.147C696.579 289.876 720.69 299.611 721.985 302.433C652.352 288.484 585.166 318.144 536.002 366.788C429.531 472.133 395.306 647.362 430.284 789.828C420.979 783.123 410.948 778.024 401.096 772.175C392.194 766.888 382.894 762.067 373.77 757.162C356.638 747.8 339.622 738.226 322.728 728.442C313.729 723.294 303.641 717.992 294.97 712.605C239.413 581.474 251.168 431.287 343.712 319.943C387.343 267.592 449.905 234.615 517.752 228.206Z"/><path fill="#141110" transform="matrix(2.30762 0 0 2.30762 0 -6.10352e-05)" d="M678.838 314.212C689.232 313.118 703.379 313.783 713.149 317.661C730.659 324.611 745.157 343.596 752 360.756C770.94 408.256 762.489 468.989 747.224 516.307C742.196 531.893 734.193 549.482 727.793 564.54C725.11 563.298 722.449 561.77 719.829 560.381C694.647 547.036 669.541 533.485 644.256 520.359C636.091 516.12 627.902 511.978 619.998 507.25C619.681 496.457 620.386 484.63 620.065 473.555C619.293 446.956 615.31 425.964 606.592 400.85C598.591 381.362 591.808 369.074 575.376 355.214C580.055 352.353 586.308 346.964 591.315 343.58C600.597 337.307 607.561 333.984 617.551 329.22C621.027 332.645 624.233 336.333 627.141 340.252C635.945 352.268 643.093 365.414 648.391 379.337C658.648 406.912 664.898 455.142 660.558 484.342C668.861 488.267 693.175 500.141 700.665 502.369C703.193 495.423 705.179 486.068 706.582 478.761C716.518 427.014 715.844 347.092 666.368 315.16L678.838 314.212Z"/></svg>
